<?xml version="1.0" standalone="no"?>
<!DOCTYPE svg PUBLIC "-//W3C//DTD SVG 20010904//EN"
 "http://www.w3.org/TR/2001/REC-SVG-20010904/DTD/svg10.dtd">
<svg version="1.0" xmlns="http://www.w3.org/2000/svg"
 width="700.000000pt" height="700.000000pt" viewBox="0 0 700.000000 700.000000"
 preserveAspectRatio="xMidYMid meet">
<metadata>
Created by potrace 1.14, written by Peter Selinger 2001-2017
</metadata>
<g transform="translate(0.000000,700.000000) scale(0.100000,-0.100000)"
fill="#000000" stroke="none">
<path d="M1720 4615 l0 -2385 660 0 c521 0 660 3 661 13 0 6 1 389 1 850 l1
837 41 1 c22 0 529 1 1126 2 l1085 2 2 548 1 547 -1127 0 -1128 0 0 405 c0
403 0 405 21 406 12 0 573 0 1247 0 l1225 0 1 579 0 580 -1909 0 -1908 0 0
-2385z"/>
<path d="M2338 1855 c-2 -2 -26 -5 -53 -9 -199 -23 -369 -160 -435 -350 -27
-77 -33 -116 -33 -226 1 -248 113 -395 378 -495 39 -15 77 -28 85 -30 68 -16
206 -62 256 -85 82 -39 97 -58 97 -121 1 -59 -25 -92 -89 -114 -73 -25 -240
-2 -344 47 -53 25 -180 111 -205 138 -17 19 -20 16 -111 -113 -51 -72 -97
-136 -101 -142 -44 -52 -44 -56 -5 -93 179 -166 389 -251 637 -257 214 -6 363
44 481 160 100 99 152 228 158 395 7 208 -67 357 -228 458 -76 48 -155 80
-316 127 -226 66 -274 98 -273 181 3 157 266 155 496 -6 53 -36 74 -46 84 -38
7 6 13 14 13 18 0 4 41 75 90 158 50 83 90 155 90 160 0 29 -198 155 -295 187
-54 18 -64 21 -143 36 -49 9 -227 20 -234 14z"/>
<path d="M3949 1820 c-1 -3 -3 -101 -3 -217 l-2 -213 268 0 268 0 0 -680 0
-680 248 2 247 3 0 678 0 677 270 0 270 0 0 218 0 217 -783 0 c-430 0 -783 -2
-783 -5z"/>
</g>
</svg>
